#!OML:ASF Y:\EmotionMaleHayes\Project 1\Capture day 1\Session 1\Male1.ASF
:FULLY-SPECIFIED
:DEGREES
34
root -32.2126 18.3847 8.35356 -33.9848 62.088 -28.2091
lowerback 19.8582 -1.69292 -10.1539
upperback 6.95228 -3.93796 -3.52751
thorax -3.05212 -1.86414 2.79455
lowerneck -22.5306 9.99955 5.91653
upperneck 16.2487 12.8543 -4.79186
head 9.49654 5.81568 -0.673277
rclavicle 1.19271e-014 -1.90833e-014
rhumerus -37.5378 -8.12115 -5.98049
rradius 38.357
rwrist -20.131
rhand -15.64 -36.4542
rfingers 7.12502
rthumb 10.5475 -66.1695
lclavicle 1.19271e-014 -1.90833e-014
lhumerus 55.0663 -35.3591 36.2048
lradius 87.8687
lwrist 20.5147
lhand -29.1953 -36.3883
lfingers 7.12502
lthumb -2.54037 -6.42368
rfemur -28.9182 -26.4735 9.03636
rtibia 38.0969
rfoot -24.0221 -22.1991
rtoes 23.5203
lfemur 3.09365 11.412 -11.6807
ltibia 11.9681
lfoot -6.14252 15.643
ltoes 1.58304
35
root -32.0391 18.2437 8.35737 -34.6111 62.1221 -28.7839
lowerback 19.9708 -1.73814 -9.7769
upperback 6.87066 -3.95369 -3.5629
thorax -3.23291 -1.85843 2.5606
lowerneck -21.72 9.91413 6.20312
upperneck 16.0584 12.7047 -4.86803
head 9.30894 5.78039 -0.803124
rclavicle 2.22639e-014 -6.04305e-014
rhumerus -37.7355 -7.97628 -4.99294
rradius 39.5414
rwrist -21.3301
rhand -15.0863 -35.7883
rfingers 7.12502
rthumb 11.0815 -65.4757
lclavicle 2.22639e-014 -6.04305e-014
lhumerus 54.7347 -36.5846 37.4074
lradius 88.8006
lwrist 20.392
lhand -28.5832 -36.0952
lfingers 7.12502
lthumb -1.94921 -6.12432
rfemur -28.6054 -25.7411 9.33455
rtibia 36.9228
rfoot -24.0711 -22.0032
rtoes 24.206
lfemur 2.54528 11.367 -11.7721
ltibia 12.1183
lfoot -4.82027 14.3925
ltoes 2.03752
36
root -31.869 18.0926 8.363 -35.5769 61.9668 -29.5969
lowerback 20.1157 -1.7302 -9.46744
upperback 6.9798 -3.88278 -3.37787
thorax -3.20855 -1.82705 2.57635
lowerneck -21.539 9.92181 6.4473
upperneck 16.1346 12.7246 -5.16396
head 9.34504 5.77431 -0.940685
rclavicle 9.54166e-015 2.8625e-014
rhumerus -37.2215 -9.6965 -3.40615
rradius 39.8121
rwrist -21.1564
rhand -14.2787 -35.0498
rfingers 7.12502
rthumb 11.8603 -64.6939
lclavicle 9.54166e-015 2.8625e-014
lhumerus 54.5296 -37.542 38.5916
lradius 89.6921
lwrist 20.3305
lhand -28.2136 -35.7973
lfingers 7.12502
lthumb -1.59219 -5.82345
rfemur -28.19 -24.8691 9.84675
rtibia 35.7475
rfoot -24.0639 -21.8895
rtoes 24.2417
lfemur 2.10674 11.5938 -11.5563
ltibia 12.7598
lfoot -4.81531 12.4715
ltoes 17.6143
37
root -31.6994 17.9199 8.35885 -35.915 61.8338 -29.9608
lowerback 20.167 -1.79355 -9.35878
upperback 6.95263 -3.94826 -3.11806
thorax -3.24726 -1.86257 2.81085
lowerneck -21.6294 10.1176 6.27442
upperneck 16.5315 13.0898 -5.22365
head 9.51372 5.91549 -0.863725
rclavicle 3.26007e-014 6.99722e-014
rhumerus -36.1412 -10.1407 -2.35468
rradius 40.6178
rwrist -22.4439
rhand -14.3619 -35.7374
rfingers 7.12502
rthumb 11.7802 -65.3861
lclavicle 3.26007e-014 6.99722e-014
lhumerus 53.958 -38.349 40.0171
lradius 90.4966
lwrist 20.251
lhand -27.9355 -35.6401
lfingers 7.12502
lthumb -1.32362 -5.66447
rfemur -28.3145 -24.1414 10.319
rtibia 34.8711
rfoot -23.8209 -21.594
rtoes 25.1751
lfemur 1.35636 11.9709 -11.735
ltibia 13.8389
lfoot -7.71046 13.205
ltoes 12.5772
38
root -31.5232 17.7389 8.34159 -36.2961 61.7867 -30.0829
lowerback 20.4253 -1.88936 -9.04988
upperback 7.03067 -4.03127 -3.05365
thorax -3.30755 -1.89952 2.73616
lowerneck -22.3506 10.5072 5.86135
upperneck 17.5624 13.6521 -4.5846
head 9.95246 6.18039 -0.439274
rclavicle 7.23576e-014 5.08889e-014
rhumerus -35.1534 -11.7773 -1.23736
rradius 41.5466
rwrist -22.3108
rhand -13.9265 -36.3471
rfingers 7.12502
rthumb 12.2 -65.9713
lclavicle 7.23576e-014 5.08889e-014
lhumerus 53.5846 -39.2137 41.1885
lradius 91.333
lwrist 20.0898
lhand -28.2562 -35.3209
lfingers 7.12502
lthumb -1.63331 -5.34737
rfemur -28.0856 -23.4269 10.4824
rtibia 34.0258
rfoot -23.4793 -21.4109
rtoes 24.9417
lfemur 0.823804 12.6112 -12.239
ltibia 16.5705
lfoot -10.2332 13.8055
ltoes 13.7113
39
root -31.3646 17.5438 8.33524 -36.8088 61.8059 -30.4493
lowerback 20.6241 -1.98247 -8.64702
upperback 7.18483 -4.07663 -3.07362
thorax -3.273 -1.91983 2.50599
lowerneck -22.4439 10.5566 5.70614
upperneck 17.4995 13.7055 -4.36154
head 9.91856 6.2201 -0.330099
rclavicle 1.4392e-013 2.8625e-014
rhumerus -34.4651 -13.096 -0.220816
rradius 42.2083
rwrist -22.4541
rhand -13.3164 -36.3827
rfingers 7.12502
rthumb 12.7882 -65.9711
lclavicle 1.4392e-013 2.8625e-014
lhumerus 53.6364 -40.2684 41.9358
lradius 92.256
lwrist 19.7405
lhand -29.2976 -35.0023
lfingers 7.12502
lthumb -2.63908 -5.03885
rfemur -27.9759 -22.5663 10.8355
rtibia 33.234
rfoot -23.4619 -21.5207
rtoes 23.7325
lfemur 0.045776 12.9041 -12.6471
ltibia 19.7425
lfoot -14.0349 11.1841
ltoes 16.8341
